PathFileType	4	(X/Y/Z)	6_coords_data.trc
DataRate	CameraRate	NumFrames	NumMarkers	Units	OrigDataRate	OrigDataStartFrame	OrigNumFrames
30.0	30.0	8	21	m	30.0	29	66
Frame#	Time	THUMB_TIP	THUMB_IP	THUMB_MCP	THUMB_CMC	INDEX_TIP	INDEX_DIP	INDEX_PIP	INDEX_MCP	MIDDLE_TIP	MIDDLE_DIP	MIDDLE_PIP	MIDDLE_MCP	RING_TIP	RING_DIP	RING_PIP	RING_MCP	PINKY_TIP	PINKY_DIP	PINKY_PIP	PINKY_MCP	WRIST
X1	Y1	Z1	X2	Y2	Z2	X3	Y3	Z3	X4	Y4	Z4	X5	Y5	Z5	X6	Y6	Z6	X7	Y7	Z7	X8	Y8	Z8	X9	Y9	Z9	X10	Y10	Z10	X11	Y11	Z11	X12	Y12	Z12	X13	Y13	Z13	X14	Y14	Z14	X15	Y15	Z15	X16	Y16	Z16	X17	Y17	Z17	X18	Y18	Z18	X19	Y19	Z19	X20	Y20	Z20	X21	Y21	Z21
27	0.9333333333333294	0.5357303665344766	-0.006191265662690015	-0.0982800231111945	0.5198654859462869	-0.0039217801615849535	-0.11474680784540275	0.48915142732007477	-0.008243513527691149	-0.11735242167287022	0.4771647315959383	-0.021267444641460798	-0.07640628212393655	0.49437925951103945	0.0026217224460899358	-0.10716287405828213	0.5102395805886157	0.0017956408926397271	-0.11586734443753209	0.5247003603299386	0.021496970181636654	-0.12176253794745664	0.49400108723684755	0.03997721350922845	-0.09874794839845927	0.4977528644937008	-0.015030683346613394	-0.10652589691125909	0.5123834836823901	-0.006014778896657469	-0.10081113977688946	0.5338382956799317	0.013549515699656678	-0.1033288707193796	0.5070040475450456	0.039622006798159304	-0.07890969268337952	0.527727396611749	0.00043552494671317277	-0.09561118239860827	0.5160208693129711	-0.007964424492174937	-0.08477614349572042	0.5382258916474032	0.0026921007756324222	-0.08845791363302564	0.5212422481904666	0.029869630328645536	-0.06380718187263454	0.508719534765044	-0.0176810284403649	-0.06758668345316651	0.522245927984322	-0.021068658980255228	-0.07751445489506978	0.5413400804121336	-0.012378542759705957	-0.07835543178943004	0.5285896706604671	0.009539279046728688	-0.05270548852582817	0.4622830810018608	-0.023011742144276925	-0.051989820119430985
28	0.9666666666666625	0.5358504909863099	-0.005946250289596056	-0.09832512038937596	0.5199483079111152	-0.003785212321760989	-0.11477049932525243	0.4892422743701944	-0.008201526466513731	-0.1173113010803496	0.47719774702870277	-0.021229352991350092	-0.0763833754407715	0.4942100723672618	0.003066607086475659	-0.10698018773594586	0.510024292977834	0.0020655352094490764	-0.11574992442396459	0.524643016346899	0.02162721468003781	-0.1217201385196819	0.4939607637602149	0.040068712701312514	-0.0986518351373729	0.49734670714184215	-0.014508127630566858	-0.10619368574879046	0.512229620056584	-0.005791242789028539	-0.10066966349760681	0.5337681993182203	0.013663723932666794	-0.10331606166264923	0.5069556144774685	0.039692299561451705	-0.07882634002490668	0.5270881518007375	0.0014280230263437055	-0.09544711486344493	0.515921447631612	-0.00768081549563393	-0.08461504309578319	0.538142570574083	0.002899400766404936	-0.08841776554477643	0.5211585579601973	0.029992266476703278	-0.06367426585020794	0.5087031965274182	-0.017353290206883032	-0.06749858332968116	0.5221680348598144	-0.020777213406801165	-0.07749732718096045	0.541242703310047	-0.01204801882587958	-0.07837494012646658	0.5285006735284695	0.009722164934514166	-0.05259542835676688	0.462283081001861	-0.023011742144276925	-0.051989820119430985
29	0.9999999999999956	0.5361571569356371	-0.005878062749508417	-0.09888646220815506	0.5199967530081766	-0.003809070056480124	-0.11509018443909673	0.48926492628746654	-0.008216616185555914	-0.11731467618516318	0.4772152687130904	-0.02118493697663837	-0.07636936621930929	0.4945325661975819	0.003435726649656745	-0.10698726726429629	0.5103097485813254	0.002369624788662983	-0.11581585394915583	0.5248188291621775	0.02204925240653932	-0.12166467182288529	0.49400165806962737	0.040153455574054475	-0.09850919973696501	0.49638366177659443	-0.012886430605119403	-0.10438555217647376	0.5125273185330887	-0.005553421220288346	-0.10069647100489808	0.5339551016938653	0.01402655916150164	-0.10332021395409502	0.5069619777837581	0.03974226684811233	-0.07869864697003823	0.5256492284711369	0.0033814400055995897	-0.09542273852824118	0.5161424211329618	-0.007453863046417486	-0.08459606674020897	0.5382829007499013	0.0033098856406318378	-0.0883538394227889	0.5210869979952303	0.030120551550677166	-0.0634498245675123	0.5090234481363227	-0.017041132827312122	-0.06770701566643965	0.5225343551826203	-0.020390265196240653	-0.07766887810082929	0.5414794091123364	-0.011360813562979799	-0.07827381925726273	0.5283673868792197	0.009994191940772446	-0.052333077866682384	0.4622830810018608	-0.023011742144276925	-0.051989820119430985
30	1.0333333333333288	0.5367793868893469	-0.005940798373062495	-0.10013805884456495	0.5200337316408689	-0.003947458226703615	-0.11574605760673924	0.4892447260806956	-0.008226893996399975	-0.11734091374716817	0.477208350038817	-0.0211229386515569	-0.07636887835678642	0.49544967095533854	0.0032907292475218286	-0.10730449743959583	0.5112675641663608	0.002697826238944434	-0.11610465200568837	0.5253125569425031	0.022826568414186288	-0.12154356268345759	0.4941358494306711	0.04022098910189831	-0.09832539885294372	0.4961137419253062	-0.010725053443262134	-0.10157109242267835	0.5133749337786142	-0.005284896931607386	-0.10089584955378328	0.5344521939668558	0.014703085522662973	-0.10327055171720297	0.5070156758850699	0.03979145505003567	-0.07849235341696675	0.5212766881607425	0.006906250101169742	-0.09511557857607474	0.5168829125317826	-0.00719709265034596	-0.08478163165557859	0.5388035905482381	0.0041022442683148475	-0.08824412201621311	0.5210150204453268	0.03027794299529163	-0.06308223806750293	0.5096665786858506	-0.016891448678169163	-0.06835548682646936	0.5234704761721114	-0.019882090653888795	-0.07802546483895031	0.5421482693538318	-0.0102930101217944	-0.07798552225650757	0.5281884720694541	0.010351687527093145	-0.05191247161479893	0.4622830810018609	-0.023011742144276925	-0.05198982011943098
31	1.0666666666666622	0.5377217970460172	-0.00617399960436138	-0.10212337091466514	0.5200983019046831	-0.0042673705825685415	-0.116744492102065	0.4892386290870079	-0.008278141673751183	-0.11738816037079638	0.477190785317104	-0.02102066838833061	-0.07637148725577868	0.4971500860984581	0.002617369686880755	-0.10797975244965659	0.5130539272915634	0.003125698427286161	-0.11662899734133161	0.5262009509815209	0.02402027333832568	-0.12138108534374299	0.49440645930334126	0.04022152647344235	-0.09813746708457252	0.49761586019473547	-0.009703896844235227	-0.09989150515606987	0.515039560298749	-0.004996198033893617	-0.10139225383473158	0.5353683512438011	0.015812777322680494	-0.10316322908070835	0.507137115132778	0.039823194115436555	-0.07821037124674854	0.5088281214770383	0.007154010139014733	-0.09114095860776047	0.5183410498706589	-0.007004947612285428	-0.08530759690332738	0.539802271643864	0.005325478817934992	-0.08805650997038442	0.5209573479985917	0.030442180929892704	-0.06258611614101772	0.5108264109511816	-0.016884081951034746	-0.06948804528328384	0.5251575255147217	-0.019209986158883474	-0.07855498109328046	0.5433573802848874	-0.008799741747639978	-0.07745765860510827	0.527987571438507	0.010739165493820813	-0.05132561829373347	0.4622830810018609	-0.023011742144276925	-0.051989820119430985
32	1.0999999999999952	0.5389467535063642	-0.006569328767085714	-0.10501900397928578	0.5201343499397623	-0.004771521437486381	-0.11809039873474117	0.4892272883443277	-0.008403247290333704	-0.11747063195136634	0.477150328554534	-0.020895744428044205	-0.07638566441456525	0.4999645323698638	0.0016274574613411863	-0.1091033552227357	0.5158789407980693	0.0037852601296032296	-0.11747446578377252	0.527547150297194	0.02573488482902575	-0.12122635805821824	0.4948672370701578	0.040088467690950425	-0.09799633385463097	0.5006764958025586	-0.009882466096539644	-0.09989303874897673	0.5178262869473561	-0.004574205404122456	-0.1022819782859177	0.5368648519418928	0.017480831753545867	-0.10300165107453266	0.5073886316401311	0.0397737819810956	-0.07789538237777073	0.5034560234541324	-0.001983845931171513	-0.08609911237827494	0.5208139677276766	-0.006850415145671085	-0.08623429624204462	0.5414619824521276	0.006987089883421782	-0.08777147596760944	0.5209946445793351	0.030508307857615047	-0.06203121141163718	0.5127143078847254	-0.01717524729044806	-0.07105322204258019	0.5277499693673737	-0.018437602028202327	-0.07913625020628676	0.5451417554079424	-0.00695885019578224	-0.07657186847011747	0.5278032395856797	0.011073328394019422	-0.05058918470983879	0.4622830810018609	-0.023011742144276925	-0.05198982011943099
33	1.1333333333333284	0.5402216220512817	-0.007022190424929908	-0.1089939317142113	0.5200352350074103	-0.005366625059276986	-0.11984606889704631	0.48915922656326494	-0.00859250875802986	-0.11759090218055152	0.4771111005001043	-0.020746761313248263	-0.07639615975885217	0.5040104070929562	0.0005015546430650053	-0.11071276276771837	0.5197139945233609	0.00481450630077207	-0.11863714222695174	0.5292267265185832	0.027959119159059242	-0.12105471510632551	0.49551013034200875	0.039822116244644046	-0.097900956525628	0.5051158633559294	-0.010516916408637056	-0.10109697357023623	0.5217820885313669	-0.0038570228398399076	-0.1035224129229944	0.5388818149445245	0.019731761081545174	-0.10276203163352995	0.5077858715036406	0.03961420569512142	-0.07758508545831978	0.5065587394519705	-0.007833828748247229	-0.08582472614016282	0.5244608004461068	-0.006556223600319266	-0.08752294204169399	0.5437689375963382	0.009171016682117616	-0.08735051267544319	0.5211387750460309	0.030452030492719606	-0.06147165976153592	0.5156179864116096	-0.017687110212710744	-0.07303421662839152	0.531378477658179	-0.017513110766931628	-0.0797107905896144	0.5474658268927303	-0.004774314225979404	-0.0752686879012694	0.52765627248423	0.011311792234300455	-0.049779431653092614	0.4622830810018609	-0.023011742144276925	-0.05198982011943099
34	1.1666666666666616	0.541249085894179	-0.007436931621984666	-0.11407922340816604	0.5197141866300385	-0.006022756115860783	-0.12196897760720199	0.48900492169553855	-0.00883396655327684	-0.11774308798970677	0.4770758201475541	-0.020612079795532146	-0.07640469681745041	0.5093574699428702	-0.0005332077842414851	-0.11291732184438011	0.524446108888748	0.006396959496128396	-0.12014959370231168	0.53109115878044	0.030631414263895596	-0.12088739248651315	0.4963235286760006	0.03938323749295436	-0.09790362471253439	0.5109468954111269	-0.011049863626258927	-0.10317716287936049	0.5268957349817511	-0.0026911545455577945	-0.10511790986304755	0.5412412499174479	0.0225359480578049	-0.10243294329545072	0.5083220511506933	0.039328142592679693	-0.07732325440335507	0.5121030669865663	-0.010947310510218577	-0.08758642204516699	0.5293493018069589	-0.005931122510608566	-0.08913730646137688	0.5465700069971975	0.011897749248037104	-0.08673759323587199	0.521400760238284	0.030250628304947957	-0.06096160282015113	0.5198039708646591	-0.018268324812346193	-0.07530666790632698	0.536115612546419	-0.016351096393640407	-0.08012896827403344	0.5501927316593391	-0.002268488936556845	-0.07347112300019638	0.527561881396562	0.011428085591462134	-0.04895313136992225	0.462283081001861	-0.023011742144276925	-0.05198982011943099
